HIERARCHY
ROOT Hips
{
  OFFSET -35.2597 29.1586 114.425
  CHANNELS 6 Xposition Yposition Zposition Zrotation Xrotation Yrotation
  JOINT LeftUpLeg
  {
    OFFSET 8.64259 1.95398 -2.38835
    CHANNELS 3 Zrotation Xrotation Yrotation
    JOINT LeftLeg
    {
      OFFSET 43.7702 0 0
      CHANNELS 3 Zrotation Xrotation Yrotation
      JOINT LeftFoot
      {
        OFFSET 40.6238 0 0
        CHANNELS 3 Zrotation Xrotation Yrotation
        JOINT LeftToeBase
        {
          OFFSET 12.7242 0 0
          CHANNELS 3 Zrotation Xrotation Yrotation
          End Site
          {
            OFFSET 0 0 0
          }
        }
      }
    }
  }
  JOINT RightUpLeg
  {
    OFFSET -8.2249 1.95398 -2.59336
    CHANNELS 3 Zrotation Xrotation Yrotation
    JOINT RightLeg
    {
      OFFSET 43.5653 0 0
      CHANNELS 3 Zrotation Xrotation Yrotation
      JOINT RightFoot
      {
        OFFSET 40.6238 0 0
        CHANNELS 3 Zrotation Xrotation Yrotation
        JOINT RightToeBase
        {
          OFFSET 12.7242 0 0
          CHANNELS 3 Zrotation Xrotation Yrotation
          End Site
          {
            OFFSET 0 0 0
          }
        }
      }
    }
  }
  JOINT Spine
  {
    OFFSET 0.165834 0.87714 6.61349
    CHANNELS 3 Zrotation Xrotation Yrotation
    JOINT Spine1
    {
      OFFSET 7.38963 1.71661e-005 0
      CHANNELS 3 Zrotation Xrotation Yrotation
      JOINT Spine2
      {
        OFFSET 11.9445 1.14441e-005 0
        CHANNELS 3 Zrotation Xrotation Yrotation
        JOINT Spine3
        {
          OFFSET 14.7254 4.19617e-005 0
          CHANNELS 3 Zrotation Xrotation Yrotation
          JOINT Spine4
          {
            OFFSET 10.9679 0 0
            CHANNELS 3 Zrotation Xrotation Yrotation
            JOINT RightShoulder
            {
              OFFSET 2.46616 -1.6653 3.69651
              CHANNELS 3 Zrotation Xrotation Yrotation
              JOINT RightArm
              {
                OFFSET 13.0012 0 0
                CHANNELS 3 Zrotation Xrotation Yrotation
                JOINT RightForeArm
                {
                  OFFSET 28.7848 1.62311e-005 0
                  CHANNELS 3 Zrotation Xrotation Yrotation
                  JOINT RightHand
                  {
                    OFFSET 26.5688 1.62095e-005 0
                    CHANNELS 3 Zrotation Xrotation Yrotation
                    End Site
                    {
                      OFFSET 0 0 0
                    }
                  }
                }
              }
            }
            JOINT LeftShoulder
            {
              OFFSET 2.38034 -1.29275 -3.7523
              CHANNELS 3 Zrotation Xrotation Yrotation
              JOINT LeftArm
              {
                OFFSET 16.3182 6.07031e-005 0
                CHANNELS 3 Zrotation Xrotation Yrotation
                JOINT LeftForeArm
                {
                  OFFSET 27.0901 0 0
                  CHANNELS 3 Zrotation Xrotation Yrotation
                  JOINT LeftHand
                  {
                    OFFSET 24.5451 1.51738e-005 0
                    CHANNELS 3 Zrotation Xrotation Yrotation
                    End Site
                    {
                      OFFSET 0 0 0
                    }
                  }
                }
              }
            }
            JOINT Neck
            {
              OFFSET 5.0226 -0.0266342 0
              CHANNELS 3 Zrotation Xrotation Yrotation
              JOINT Head
              {
                OFFSET 6.69364 2.86102e-005 0
                CHANNELS 3 Zrotation Xrotation Yrotation
                End Site
                {
                  OFFSET 0 0 0
                }
              }
            }
          }
        }
      }
    }
  }
}
MOTION
Frames:	12
Frame Time:	0.0416667
239.826 93.1736 243.9 -70.5135 41.8208 -104.613 -170.194 51.8574 83.0556 -47.7391 6.95328 -4.62336 79.6412 12.0889 -1.86542 29.2451 -0.471299 1.45846 -171.647 -7.24484 105.407 -20.25 -15.686 -25.1625 -20.6029 -0.369672 60.4824 52.3037 -10.3944 18.5263 2.12197 7.67028 -89.4193 11.5263 4.49321 0.696526 -0.136929 4.51947 0.497698 -22.7242 4.07581 2.01679 -2.71158 4.07582 2.01679 93.6332 -21.8081 -102.078 30.2043 6.96884 4.64857 -47.0604 -16.3166 -76.3406 -34.3666 11.0616 -40.5815 -87.1329 -43.2011 81.8092 -19.821 -14.1535 93.4604 111.613 -40.0045 -78.9775 58.5762 -17.0531 -32.8165 31.4351 -11.1501 -5.65012 -7.01121 -8.43579 2.35898 
232.785 93.5453 237.175 -75.6367 42.3806 -99.9922 -171.09 41.889 85.4238 -44.2179 9.81216 -4.35641 78.7097 11.9071 -1.55963 25.7686 -3.21782 3.23238 -173.749 -2.39088 104.457 -40.8795 -18.575 -21.2914 -15.7832 18.5483 54.4086 47.5923 -9.67985 22.0292 1.84099 7.95827 -89.4946 10.9516 3.89922 0.637551 -0.713522 3.92348 0.465046 -23.2881 3.52712 1.78129 -3.27549 3.52712 1.7813 90.2507 -27.9646 -107.064 33.1278 5.16902 11.4065 -46.8073 -20.5785 -72.3112 -32.6201 10.63 -41.0865 -87.3248 -51.0898 82.9271 -20.6345 -12.0815 65.7606 104.452 -26.0391 -86.4708 57.7082 -15.2155 -30.2191 28.9515 -10.3902 -7.7156 -6.21878 -7.00805 1.63978 
225.742 93.0582 231.002 -80.7028 37.9834 -100.264 -173.208 32.0229 81.5935 -41.9145 9.91117 -3.7132 75.8997 10.9823 -0.0242373 26.2589 -1.3801 0.433222 177.152 9.87487 94.3656 -65.8687 -20.3777 -10.3988 -0.688888 30.7815 34.0781 51.5097 -10.5101 22.3251 0.844788 8.2423 -89.0546 10.368 2.11567 1.69446 -1.30261 2.18819 1.59972 -23.8327 1.50883 2.25173 -3.82001 1.50882 2.25173 88.6493 -32.755 -108.312 35.9893 5.74965 12.8894 -51.9928 -34.3982 -66.1698 -32.2646 9.84446 -38.9962 -88.3941 -56.1602 82.227 -22.9149 -6.88496 43.7033 97.9671 -14.8597 -90.6494 55.8629 -13.7594 -28.1553 26.0054 -9.39975 -10.4598 -6.42934 -5.29729 1.63735 
219.394 92.2811 224.568 -79.6186 38.8631 -100.691 -171.345 26.8299 82.8307 -44.7182 4.56224 -3.85569 86.8622 16.3525 -6.00747 21.3751 -2.96836 -1.32061 177.657 21.8251 88.6096 -79.4179 -12.3802 -3.73396 18.6691 25.901 10.1093 74.7725 -11.806 39.2311 0.443366 7.96121 -88.886 10.9343 1.39802 2.08242 -0.737362 1.4883 2.01889 -23.2616 0.707718 2.40613 -3.24891 0.707719 2.40613 88.4765 -35.4344 -107.627 38.2671 8.35488 6.6482 -46.678 -60.5926 -49.7124 -38.8798 10.1669 -33.9704 -89.0996 -58.0591 81.5682 -22.1501 -1.05544 24.935 88.7109 -14.4828 -92.7502 28.7161 -10.8984 -44.0233 21.9141 -7.14817 -12.2871 -5.6111 -2.87641 0.679121 
213.956 91.0125 218.783 -79.6275 39.1043 -101.743 -170.527 21.2281 83.3958 -45.2268 6.22279 -3.96596 88.419 18.5683 -4.3426 34.4329 4.93306 -5.48524 178.037 31.7962 90.9156 -91.8002 -5.9229 -4.24287 50.5866 7.31362 -7.15492 67.4951 -12.7444 28.5061 -0.137536 8.01096 -88.7465 10.842 0.305198 2.46458 -0.831179 0.413329 2.44877 -23.3479 -0.449405 2.44242 -3.33529 -0.449386 2.44242 90.4719 -34.5197 -104.259 40.1941 10.6791 4.3613 -8.5237 -67.6147 -8.01076 -43.1961 10.0049 -30.4783 -89.273 -56.4983 81.0538 -19.832 4.15102 -1.02774 84.1912 -10.3205 -93.2856 14.6412 -7.80356 -52.8956 21.3626 -4.33598 -11.716 -4.06939 -0.336197 -1.58902 
207.512 90.0016 212.505 -82.0739 37.2108 -98.5768 -171.076 12.1682 87.341 -42.5435 7.51623 -2.65556 95.1481 22.76 -6.84933 33.9423 3.03691 -1.28448 178.071 36.3147 91.8619 -93.6124 -7.59466 -3.8808 70.5803 -8.42096 -10.6147 33.7764 -5.30316 13.6395 -1.09307 7.94584 -88.7903 10.9973 -1.61607 2.54163 -0.675265 -1.50271 2.61023 -23.2041 -2.30488 1.93882 -3.19149 -2.30488 1.93882 91.4893 -34.568 -102.195 29.3519 14.286 30.495 -108.995 -59.4237 -105.843 -24.6004 5.60734 -29.1081 -89.2704 -50.5155 79.9704 -18.7855 6.77521 -11.1998 83.2941 -7.34739 -93.4398 36.2489 -11.9358 -37.3171 17.5548 -1.00955 -13.4366 -3.42897 2.78472 -0.471154 
200.369 90.1278 205.864 -82.6989 36.8381 -94.2954 -170.193 0.991416 89.3082 -35.935 10.6345 -1.24641 93.005 23.1268 -4.31707 39.2098 4.64281 0.691775 177.232 44.0937 95.0313 -88.4032 -3.52968 -3.00642 76.1738 -11.3202 -7.00872 17.4414 0.518203 10.6532 -2.249 7.73077 -88.8053 11.5394 -3.91685 2.70943 -0.127674 -3.79372 2.87924 -22.7116 -4.55023 1.4053 -2.69898 -4.55021 1.40531 88.5091 -37.4274 -106.672 26.9838 16.2642 25.1934 -3.63417 -63.1917 -2.77422 -36.7472 10.894 -38.0517 -86.4167 -39.6068 82.3086 -17.3053 3.42371 -10.0782 80.9409 -12.7216 -94.3955 50.578 -9.32746 -22.7006 15.7914 3.98051 -16.8725 -5.90098 8.26986 0.770706 
192.475 91.7484 198.45 -83.4244 38.0146 -90.7014 -169.235 -7.1387 96.72 -26.097 15.4296 0.072628 77.4699 15.6368 3.58442 53.0761 11.0549 -0.369073 176.661 48.2028 97.8424 -76.7162 -0.132105 -1.88969 75.4346 -9.61588 -5.77197 17.0879 1.00308 9.94001 -2.52692 8.02132 -90.0258 10.8396 -5.04315 0.428438 -0.821821 -5.01939 0.650535 -23.4323 -4.93812 -1.11083 -3.41962 -4.93813 -1.11084 94.9864 -23.7074 -98.4122 23.3075 16.5771 27.1072 -16.5977 -80.8691 -15.756 -33.3126 9.59076 -37.1204 -86.4996 -36.076 81.447 -18.0641 -1.37996 -22.0062 75.5161 -7.28841 -93.8374 52.0134 -11.1074 -25.561 18.34 8.06079 -5.08004 -5.75543 9.45084 -2.71019 
183.906 93.5658 190.528 -83.6333 39.6208 -87.917 -169.126 -14.6934 98.4722 -19.4257 17.4868 1.6319 58.6144 1.47262 4.05432 60.6777 14.0557 0.589448 177.298 48.1496 99.2267 -60.3686 -0.750216 -0.506041 72.2264 -6.672 -4.2843 18.2863 0.819526 9.36787 -3.0413 7.98129 -90.4228 10.9173 -6.25058 -0.250737 -0.738516 -6.25553 0.0257 -23.3843 -5.88523 -2.12424 -3.37164 -5.88523 -2.12423 93.6237 -22.3854 -101.892 21.282 16.9252 35.0678 -7.94249 -65.0658 -7.49163 -38.3358 11.6326 -38.3752 -84.1074 -27.7647 84.2423 -18.2128 -3.40121 -16.0481 70.5485 -11.2112 -95.9157 54.7687 -11.0675 -24.3868 21.6019 11.2564 -5.6873 -11.7942 12.7012 0.328717 
174.951 94.7269 182.219 -83.3151 42.4755 -85.9194 -170.312 -17.3516 98.0673 -22.4098 13.887 3.84501 50.4035 -6.52902 2.22315 27.7354 3.73828 -9.35881 179.309 44.8282 100.172 -42.2186 -9.07015 0.265665 70.6528 -6.60436 -2.92144 19.4769 1.41915 6.72566 -3.05802 7.95805 -90.9225 10.9341 -6.51486 -1.21866 -0.720778 -6.56216 -0.929538 -23.3623 -5.84656 -3.1263 -3.34966 -5.84657 -3.1263 93.4225 -20.4776 -103.063 16.8827 16.971 39.3558 -7.76235 -64.1292 -7.33541 -35.5441 12.51 -43.5039 -83.6742 -23.7738 84.3275 -18.6451 -6.28406 -10.3868 70.9728 -14.7721 -97.0945 52.1334 -11.6739 -26.6293 21.9159 13.8095 -2.48164 -13.7582 14.0081 1.63289 
166.921 94.4924 174.316 -83.1351 44.3691 -86.0399 -170.399 -17.5305 96.7031 -31.1877 19.1656 3.12452 52.6225 -5.24119 4.13992 19.3372 -1.57753 -5.41002 -179.524 41.9204 100.139 -29.6941 -18.3091 0.513021 69.4235 -6.88835 -4.1255 21.7418 0.312554 7.48116 -2.96911 7.91309 -91.0987 11.0128 -6.41954 -1.57276 -0.642865 -6.48252 -1.28759 -23.2745 -5.64945 -3.43449 -3.26188 -5.64945 -3.43449 93.0575 -21.4323 -103.54 15.0656 16.9101 40.8107 -7.63628 -63.4733 -7.22499 -38.6361 13.5603 -43.1291 -83.3892 -22.9519 84.7659 -18.4895 -5.19308 -6.82449 70.8644 -16.3475 -97.6864 46.8973 -11.8 -29.8005 20.9799 14.9976 -0.932395 -12.316 14.549 2.88339 
159.707 93.3752 166.68 -85.998 45.4011 -86.0092 -169.846 -15.6757 94.875 -45.4196 19.2829 1.60593 53.5294 -4.54047 2.49187 29.166 4.06623 -8.46954 179.591 37.8796 99.7513 -26.6712 -12.67 1.15624 70.9153 -7.98909 -3.26957 19.2199 0.58423 9.17698 -2.78929 7.96268 -90.9028 10.9259 -5.97075 -1.2313 -0.73168 -6.01913 -0.966424 -23.3543 -5.32404 -2.97329 -3.34171 -5.32404 -2.9733 92.7122 -24.5998 -103.146 16.1433 16.9865 38.8749 -7.19981 -60.889 -6.85342 -38.4042 12.5692 -40.8438 -84.4198 -27.9189 83.6473 -18.4211 -1.82865 -2.24055 74.4144 -16.4985 -96.7049 43.3747 -11.0208 -29.9092 18.978 14.9786 0.929261 -11.072 14.0852 2.05193 
